<?xml version="1.0" encoding="utf-8"?>
<svg width="163px" height="61px" viewbox="0 0 163 61" version="1.1" xmlns:xlink="http://www.w3.org/1999/xlink" xmlns="http://www.w3.org/2000/svg">
  <g fill="#DB9C34" style="mix-blend-mode: darken;" stroke="#425FD7" stroke-width="1" id="Foodee">
    <path d="M96.1436 43.1035L101.698 43.1035L101.698 16.4551L96.1436 16.4551L96.1436 27.1602L96.0732 27.1602Q94.7021 24.6641 91.2217 24.6641Q87.5479 24.6641 85.2803 27.3535Q83.0127 30.043 83.0127 34.5078Q83.0127 38.7793 85.0693 41.1611Q87.126 43.543 90.501 43.543Q94.1748 43.543 96.0732 40.625L96.1436 40.625L96.1436 43.1035ZM27.5713 22.5195L36.4658 22.5195L36.4658 17.8965L21.8936 17.8965L21.8936 43.1035L27.5713 43.1035L27.5713 33.3125L35.7451 33.3125L35.7451 28.707L27.5713 28.707L27.5713 22.5195ZM41.5723 41.0205Q44.1475 43.543 48.6475 43.543Q53.2178 43.543 55.8457 40.9414Q58.4736 38.3398 58.4736 33.8574Q58.4736 29.709 55.9248 27.1865Q53.376 24.6641 48.8936 24.6641Q44.3408 24.6641 41.6689 27.1865Q38.9971 29.709 38.9971 34.1738Q38.9971 38.498 41.5723 41.0205ZM70.6553 43.543Q66.1553 43.543 63.5801 41.0205Q61.0049 38.498 61.0049 34.1738Q61.0049 29.709 63.6768 27.1865Q66.3486 24.6641 70.9014 24.6641Q75.3838 24.6641 77.9326 27.1865Q80.4814 29.709 80.4814 33.8574Q80.4814 38.3398 77.8535 40.9414Q75.2256 43.543 70.6553 43.543ZM122.546 35.6855L110.804 35.6855Q111.085 39.6055 115.743 39.6055Q118.714 39.6055 120.964 38.1992L120.964 42.207Q118.468 43.543 114.478 43.543Q110.118 43.543 107.71 41.126Q105.302 38.709 105.302 34.3848Q105.302 29.9023 107.903 27.2832Q110.505 24.6641 114.302 24.6641Q118.239 24.6641 120.393 27.002Q122.546 29.3398 122.546 33.3477L122.546 35.6855ZM130.28 35.6855L142.022 35.6855L142.022 33.3477Q142.022 29.3398 139.869 27.002Q137.716 24.6641 133.778 24.6641Q129.981 24.6641 127.38 27.2832Q124.778 29.9023 124.778 34.3848Q124.778 38.709 127.187 41.126Q129.595 43.543 133.954 43.543Q137.944 43.543 140.44 42.207L140.44 38.1992Q138.19 39.6055 135.22 39.6055Q130.562 39.6055 130.28 35.6855ZM117.396 32.2754Q117.396 28.4082 114.267 28.4082Q112.931 28.4082 111.955 29.5156Q110.979 30.623 110.769 32.2754L117.396 32.2754ZM133.743 28.4082Q136.872 28.4082 136.872 32.2754L130.245 32.2754Q130.456 30.623 131.432 29.5156Q132.407 28.4082 133.743 28.4082ZM45.7295 30.2715Q46.8193 28.918 48.7881 28.918Q52.8135 28.918 52.8135 33.9629Q52.8135 39.2891 48.8232 39.2891Q44.6396 39.2891 44.6396 34.1035Q44.6396 31.625 45.7295 30.2715ZM70.7959 28.918Q68.8271 28.918 67.7373 30.2715Q66.6475 31.625 66.6475 34.1035Q66.6475 39.2891 70.8311 39.2891Q74.8213 39.2891 74.8213 33.9629Q74.8213 28.918 70.7959 28.918ZM96.249 32.9961L96.249 34.3496Q96.249 36.582 95.1855 37.9355Q94.1221 39.2891 92.4346 39.2891Q90.6592 39.2891 89.6572 38.0059Q88.6553 36.7227 88.6553 34.3496Q88.6553 31.8184 89.6924 30.3682Q90.7295 28.918 92.5752 28.918Q94.21 28.918 95.2295 30.0781Q96.249 31.2383 96.249 32.9961Z" />
  </g>
</svg>