<?xml version="1.0" encoding="utf-8"?>
<svg width="89px" height="111px" viewbox="0 0 89 111" version="1.1" xmlns:xlink="http://www.w3.org/1999/xlink" xmlns="http://www.w3.org/2000/svg">
  <path d="M75.2272 0.00555417C75.0522 35.4753 67.8644 61.2683 53.6637 77.3845C49.2009 82.449 44.2938 86.2339 38.9423 88.7393C36.2461 90.0015 33.9878 90.754 32.1674 90.9966L32.124 91.0024L0 91.0024L18.6224 79.8665L19.2898 80.8656L4.31437 89.8206L32.0358 89.8206C33.7169 89.5894 35.8345 88.8759 38.3884 87.6801C43.5814 85.2488 48.3534 81.5646 52.7044 76.6276C66.5936 60.8677 73.6829 35.6296 73.9721 0.913409C73.9746 0.610869 73.9767 0.306399 73.9781 0L75.2272 0.00555417L75.2272 0.00555417Z" transform="matrix(0.98768836 -0.15643434 0.15643434 0.98768836 0 11.768127)" id="Vector" fill="#808080" fill-rule="evenodd" stroke="none" />
  <path d="M0 0C16.6 8.19959 19 7.99957 19 7.99957" transform="translate(15.437317 101.65854)" id="New-shape-2" fill="none" fill-rule="evenodd" stroke="#808080" stroke-width="1" />
</svg>