<?xml version="1.0" encoding="utf-8"?>
<svg width="326px" height="154px" viewbox="0 0 326 154" version="1.1" xmlns:xlink="http://www.w3.org/1999/xlink" xmlns="http://www.w3.org/2000/svg">
  <g id="Looking-For-Food-Around-You!!!">
    <g stroke="#1C71FF" stroke-width="1" id="Looking-For-Food-" fill="#F87C22">
      <path d="M91.584 44.006Q90.612 44.006 89.91 43.268Q89.208 42.53 89.208 41.558Q89.208 40.226 90.09 39.326Q90.972 38.426 92.34 38.426Q93.456 38.426 94.104 39.128Q94.752 39.83 94.752 40.802Q94.752 42.17 93.924 43.088Q93.096 44.006 91.584 44.006ZM70.308 67.874L74.124 39.326L73.224 38.858L67.104 39.578L66.816 40.91L69.012 41.63L65.556 67.874L70.308 67.874ZM294.408 64.67Q294.408 64.382 294.444 64.238L298.08 39.326L297.18 38.858L290.7 39.578L290.376 40.91L292.968 41.63L292.068 47.714Q290.916 47.426 289.872 47.426Q286.128 47.426 283.482 49.352Q280.836 51.278 279.504 54.338Q278.172 57.398 278.172 60.746Q278.172 64.094 279.648 66.164Q281.124 68.234 284.148 68.234Q286.092 68.234 287.604 67.352Q289.116 66.47 290.016 65.21L290.016 65.75Q290.124 67.01 290.772 67.622Q291.42 68.234 292.68 68.234Q295.128 68.234 297.144 65.858L296.64 64.742Q295.632 65.57 295.02 65.57Q294.408 65.57 294.408 64.67ZM13.788 42.89L13.968 41.126L3.276 41.126L3.06 42.89L5.58 43.322L2.664 65.714L0.18 66.218L0 67.874L19.152 67.874L20.952 58.55L18.288 58.19L15.084 65.498L7.704 65.786L10.62 43.322L13.788 42.89ZM169.38 47.426L169.992 41.126L151.056 41.126L150.84 42.89L153.36 43.322L150.444 65.714L147.96 66.218L147.78 67.874L160.02 67.874L160.164 66.218L155.52 65.714L156.852 55.382L165.312 55.922L165.744 52.502L157.14 52.898L158.436 43.07L165.744 43.43L166.212 47.426L169.38 47.426ZM235.692 41.126L235.08 47.426L231.912 47.426L231.444 43.43L224.136 43.07L222.84 52.898L231.444 52.502L231.012 55.922L222.552 55.382L221.22 65.714L225.864 66.218L225.72 67.874L213.48 67.874L213.66 66.218L216.144 65.714L219.06 43.322L216.54 42.89L216.756 41.126L235.692 41.126ZM39.672 49.568Q37.692 47.39 33.948 47.39Q30.744 47.39 28.26 49.064Q25.776 50.738 24.426 53.582Q23.076 56.426 23.076 59.81Q23.076 63.914 25.038 66.128Q27 68.342 30.744 68.342Q33.948 68.342 36.432 66.632Q38.916 64.922 40.284 62.042Q41.652 59.162 41.652 55.814Q41.652 51.746 39.672 49.568ZM55.152 47.39Q58.896 47.39 60.876 49.568Q62.856 51.746 62.856 55.814Q62.856 59.162 61.488 62.042Q60.12 64.922 57.636 66.632Q55.152 68.342 51.948 68.342Q48.204 68.342 46.242 66.128Q44.28 63.914 44.28 59.81Q44.28 56.426 45.63 53.582Q46.98 50.738 49.464 49.064Q51.948 47.39 55.152 47.39ZM181.08 47.39Q184.824 47.39 186.804 49.568Q188.784 51.746 188.784 55.814Q188.784 59.162 187.416 62.042Q186.048 64.922 183.564 66.632Q181.08 68.342 177.876 68.342Q174.132 68.342 172.17 66.128Q170.208 63.914 170.208 59.81Q170.208 56.426 171.558 53.582Q172.908 50.738 175.392 49.064Q177.876 47.39 181.08 47.39ZM252.504 49.568Q250.524 47.39 246.78 47.39Q243.576 47.39 241.092 49.064Q238.608 50.738 237.258 53.582Q235.908 56.426 235.908 59.81Q235.908 63.914 237.87 66.128Q239.832 68.342 243.576 68.342Q246.78 68.342 249.264 66.632Q251.748 64.922 253.116 62.042Q254.484 59.162 254.484 55.814Q254.484 51.746 252.504 49.568ZM267.984 47.39Q271.728 47.39 273.708 49.568Q275.688 51.746 275.688 55.814Q275.688 59.162 274.32 62.042Q272.952 64.922 270.468 66.632Q267.984 68.342 264.78 68.342Q261.036 68.342 259.074 66.128Q257.112 63.914 257.112 59.81Q257.112 56.426 258.462 53.582Q259.812 50.738 262.296 49.064Q264.78 47.39 267.984 47.39ZM107.316 48.614Q105.48 49.802 104.148 51.782L104.508 47.822L103.68 47.426L98.064 48.29L97.776 49.766L99.612 50.738L97.308 67.874L102.024 67.874L103.752 55.058Q104.796 53.186 106.254 51.854Q107.712 50.522 108.9 50.522Q109.872 50.522 110.25 51.134Q110.628 51.746 110.628 53.402Q110.628 54.338 110.484 55.616Q110.34 56.894 110.106 58.298Q109.872 59.702 109.8 60.026L109.584 61.25Q108.936 64.454 108.9 65.534Q108.9 66.758 109.548 67.496Q110.196 68.234 111.888 68.234Q113.652 68.234 114.876 67.424Q116.1 66.614 116.64 65.858L116.136 64.742Q115.56 65.21 115.2 65.39Q114.84 65.57 114.516 65.57Q113.94 65.57 113.94 64.67L113.94 64.526Q113.976 63.266 114.48 60.422Q114.588 59.918 114.732 58.982Q115.632 54.122 115.632 52.718Q115.632 47.426 111.168 47.426Q109.152 47.426 107.316 48.614ZM134.892 69.242Q134.352 73.346 131.364 75.128Q128.376 76.91 124.524 76.91Q123.336 76.91 121.986 76.676Q120.636 76.442 120.096 76.19L120.924 72.806Q121.608 73.238 123.012 73.778Q124.416 74.318 125.712 74.318Q127.8 74.318 128.772 73.49Q129.744 72.662 130.032 70.358L130.572 66.074Q129.6 67.01 128.304 67.622Q127.008 68.234 125.496 68.234Q122.472 68.234 120.942 66.164Q119.412 64.094 119.412 60.746Q119.412 57.434 120.798 54.374Q122.184 51.314 124.866 49.37Q127.548 47.426 131.22 47.426Q132.228 47.426 133.38 47.66Q134.532 47.894 135.396 48.218L137.952 47.426L134.892 69.242ZM200.574 48.992Q198.9 50.558 198.216 52.61L198.36 51.242L198.54 47.966L197.712 47.462L192.564 48.326L192.312 49.766L194.148 50.774L191.88 67.874L196.56 67.874L198.324 54.59Q198.972 53.546 200.16 52.988Q201.348 52.43 202.644 52.43Q203.328 52.43 203.814 52.592Q204.3 52.754 204.516 52.934L205.56 47.75Q205.056 47.426 204.336 47.426Q202.248 47.426 200.574 48.992ZM91.188 64.274Q91.152 64.454 91.152 64.706Q91.152 65.57 91.764 65.57Q92.088 65.57 92.484 65.354Q92.88 65.138 93.492 64.634L93.96 65.75Q93.348 66.578 92.142 67.406Q90.936 68.234 89.208 68.234Q87.804 68.234 87.012 67.676Q86.22 67.118 86.22 66.146L86.256 65.786Q86.472 63.914 87.732 54.914L88.308 50.738L86.184 49.73L86.436 48.326L92.628 47.462L93.492 47.858L91.188 64.274ZM75.492 54.842Q74.376 55.706 72.792 56.606L71.928 57.146L75.924 66.182Q76.392 67.19 77.166 67.694Q77.94 68.198 79.2 68.198Q80.892 68.198 82.332 67.298Q83.772 66.398 84.384 65.498L83.808 64.346Q83.34 64.742 82.818 64.94Q82.296 65.138 81.9 65.138Q81.468 65.138 80.946 64.724Q80.424 64.31 79.992 63.554L76.104 56.57Q77.94 55.706 79.65 54.554Q81.36 53.402 82.332 52.142Q83.268 50.81 83.232 49.514Q83.232 48.65 82.692 48.074Q82.152 47.498 81.216 47.498Q80.28 47.498 79.506 48.002Q78.732 48.506 78.696 49.622Q78.624 51.242 77.724 52.502Q76.608 53.978 75.492 54.842ZM30.528 51.152Q31.68 49.658 33.336 49.658Q34.92 49.658 35.658 51.17Q36.396 52.682 36.396 56.102Q36.396 58.55 35.856 60.89Q35.316 63.23 34.2 64.742Q33.084 66.254 31.464 66.254Q29.808 66.254 29.034 64.67Q28.26 63.086 28.26 59.666Q28.26 57.254 28.818 54.95Q29.376 52.646 30.528 51.152ZM54.54 49.658Q52.884 49.658 51.732 51.152Q50.58 52.646 50.022 54.95Q49.464 57.254 49.464 59.666Q49.464 63.086 50.238 64.67Q51.012 66.254 52.668 66.254Q54.288 66.254 55.404 64.742Q56.52 63.23 57.06 60.89Q57.6 58.55 57.6 56.102Q57.6 52.682 56.862 51.17Q56.124 49.658 54.54 49.658ZM132.876 50.09Q132.12 49.658 130.788 49.658Q128.628 49.658 127.188 51.332Q125.748 53.006 125.082 55.508Q124.416 58.01 124.416 60.53Q124.416 62.87 125.19 64.184Q125.964 65.498 127.332 65.498Q128.34 65.498 129.294 64.904Q130.248 64.31 130.932 63.482L132.876 50.09ZM180.468 49.658Q178.812 49.658 177.66 51.152Q176.508 52.646 175.95 54.95Q175.392 57.254 175.392 59.666Q175.392 63.086 176.166 64.67Q176.94 66.254 178.596 66.254Q180.216 66.254 181.332 64.742Q182.448 63.23 182.988 60.89Q183.528 58.55 183.528 56.102Q183.528 52.682 182.79 51.17Q182.052 49.658 180.468 49.658ZM243.36 51.152Q244.512 49.658 246.168 49.658Q247.752 49.658 248.49 51.17Q249.228 52.682 249.228 56.102Q249.228 58.55 248.688 60.89Q248.148 63.23 247.032 64.742Q245.916 66.254 244.296 66.254Q242.64 66.254 241.866 64.67Q241.092 63.086 241.092 59.666Q241.092 57.254 241.65 54.95Q242.208 52.646 243.36 51.152ZM267.372 49.658Q265.716 49.658 264.564 51.152Q263.412 52.646 262.854 54.95Q262.296 57.254 262.296 59.666Q262.296 63.086 263.07 64.67Q263.844 66.254 265.5 66.254Q267.12 66.254 268.236 64.742Q269.352 63.23 269.892 60.89Q270.432 58.55 270.432 56.102Q270.432 52.682 269.694 51.17Q268.956 49.658 267.372 49.658ZM289.44 49.658Q290.808 49.658 291.708 50.162L289.764 63.122Q289.116 64.094 288.108 64.796Q287.1 65.498 285.984 65.498Q284.616 65.498 283.878 64.202Q283.14 62.906 283.14 60.53Q283.14 57.974 283.788 55.49Q284.436 53.006 285.84 51.332Q287.244 49.658 289.44 49.658Z" />
    </g>
    <g stroke="#1C71FF" stroke-width="1" id="Around-You!!!" fill="#F87C22">
      <path d="M204.48 103.802L207.504 103.802L211.86 81.626L206.82 81.626L204.48 103.802ZM219.924 103.802L216.9 103.802L219.24 81.626L224.28 81.626L219.924 103.802ZM229.32 103.802L232.344 103.802L236.7 81.626L231.66 81.626L229.32 103.802ZM121.932 109.67Q121.932 109.382 121.968 109.238L125.604 84.326L124.704 83.858L118.224 84.578L117.9 85.91L120.492 86.63L119.592 92.714Q118.44 92.426 117.396 92.426Q113.652 92.426 111.006 94.352Q108.36 96.278 107.028 99.338Q105.696 102.398 105.696 105.746Q105.696 109.094 107.172 111.164Q108.648 113.234 111.672 113.234Q113.616 113.234 115.128 112.352Q116.64 111.47 117.54 110.21L117.54 110.75Q117.648 112.01 118.296 112.622Q118.944 113.234 120.204 113.234Q122.652 113.234 124.668 110.858L124.164 109.742Q123.156 110.57 122.544 110.57Q121.932 110.57 121.932 109.67ZM21.24 110.678L16.812 86.09L11.808 86.09L-0.036 110.75L-2.484 111.218L-2.628 112.874L6.732 112.874L6.84 111.218L3.564 110.714L5.976 105.314L15.084 105.314L15.948 110.75L12.996 111.218L12.924 112.874L23.976 112.874L24.084 111.218L21.24 110.678ZM146.484 86.126L146.232 87.89L143.136 88.322L146.448 97.43L147.276 99.95L148.464 97.718L154.116 88.322L151.272 87.89L151.452 86.126L160.056 86.126L159.84 87.89L157.644 88.286L148.536 102.362L147.42 110.714L151.596 111.218L151.452 112.874L138.168 112.874L138.348 111.218L142.452 110.714L143.496 102.362L137.448 88.322L135.216 87.89L135.396 86.126L146.484 86.126ZM14.76 102.974L6.984 102.974L12.996 89.402L13.176 92.354L14.76 102.974ZM50.76 92.39Q54.504 92.39 56.484 94.568Q58.464 96.746 58.464 100.814Q58.464 104.162 57.096 107.042Q55.728 109.922 53.244 111.632Q50.76 113.342 47.556 113.342Q43.812 113.342 41.85 111.128Q39.888 108.914 39.888 104.81Q39.888 101.426 41.238 98.582Q42.588 95.738 45.072 94.064Q47.556 92.39 50.76 92.39ZM174.708 94.568Q172.728 92.39 168.984 92.39Q165.78 92.39 163.296 94.064Q160.812 95.738 159.462 98.582Q158.112 101.426 158.112 104.81Q158.112 108.914 160.074 111.128Q162.036 113.342 165.78 113.342Q168.984 113.342 171.468 111.632Q173.952 109.922 175.32 107.042Q176.688 104.162 176.688 100.814Q176.688 96.746 174.708 94.568ZM34.182 93.992Q32.508 95.558 31.824 97.61L31.968 96.242L32.148 92.966L31.32 92.462L26.172 93.326L25.92 94.766L27.756 95.774L25.488 112.874L30.168 112.874L31.932 99.59Q32.58 98.546 33.768 97.988Q34.956 97.43 36.252 97.43Q36.936 97.43 37.422 97.592Q37.908 97.754 38.124 97.934L39.168 92.75Q38.664 92.426 37.944 92.426Q35.856 92.426 34.182 93.992ZM90.432 96.782Q91.764 94.802 93.6 93.614Q95.436 92.426 97.452 92.426Q101.916 92.426 101.916 97.718Q101.916 99.122 101.016 103.982Q100.872 104.918 100.764 105.422Q100.26 108.266 100.224 109.526L100.224 109.67Q100.224 110.57 100.8 110.57Q101.124 110.57 101.484 110.39Q101.844 110.21 102.42 109.742L102.924 110.858Q102.384 111.614 101.16 112.424Q99.936 113.234 98.172 113.234Q96.48 113.234 95.832 112.496Q95.184 111.758 95.184 110.534Q95.22 109.454 95.868 106.25L96.084 105.026Q96.156 104.702 96.39 103.298Q96.624 101.894 96.768 100.616Q96.912 99.338 96.912 98.402Q96.912 96.746 96.534 96.134Q96.156 95.522 95.184 95.522Q93.996 95.522 92.538 96.854Q91.08 98.186 90.036 100.058L88.308 112.874L83.592 112.874L85.896 95.738L84.06 94.766L84.348 93.29L89.964 92.426L90.792 92.822L90.432 96.782ZM67.284 104.342Q67.392 103.802 67.536 102.47L68.76 92.858L67.932 92.462L61.956 93.074L61.668 94.55L63.756 95.774L62.784 102.326Q62.748 102.65 62.604 103.55Q62.1 107.222 62.1 108.626Q62.136 111.038 63.54 112.136Q64.944 113.234 66.96 113.234Q70.56 113.234 73.224 110.03L73.296 110.066Q73.224 110.498 73.224 110.786L73.26 111.218Q73.332 112.154 73.998 112.694Q74.664 113.234 75.924 113.234Q77.544 113.234 78.804 112.37Q80.064 111.506 80.532 110.75L80.028 109.634Q79.38 110.174 79.02 110.372Q78.66 110.57 78.336 110.57Q77.976 110.57 77.796 110.246Q77.616 109.922 77.688 109.274L79.992 92.606L75.24 92.606L73.152 108.158Q72.36 109.166 71.226 109.886Q70.092 110.606 68.94 110.606Q67.932 110.606 67.428 109.994Q66.924 109.382 66.924 107.942Q66.924 107.15 67.284 104.342ZM185.76 102.47Q185.616 103.802 185.508 104.342Q185.148 107.15 185.148 107.942Q185.148 109.382 185.652 109.994Q186.156 110.606 187.164 110.606Q188.316 110.606 189.45 109.886Q190.584 109.166 191.376 108.158L193.464 92.606L198.216 92.606L195.912 109.274Q195.84 109.922 196.02 110.246Q196.2 110.57 196.56 110.57Q196.884 110.57 197.244 110.372Q197.604 110.174 198.252 109.634L198.756 110.75Q198.288 111.506 197.028 112.37Q195.768 113.234 194.148 113.234Q192.888 113.234 192.222 112.694Q191.556 112.154 191.484 111.218L191.448 110.786Q191.448 110.498 191.52 110.066L191.448 110.03Q188.784 113.234 185.184 113.234Q183.168 113.234 181.764 112.136Q180.36 111.038 180.324 108.626Q180.324 107.222 180.828 103.55Q180.972 102.65 181.008 102.326L181.98 95.774L179.892 94.55L180.18 93.074L186.156 92.462L186.984 92.858L185.76 102.47ZM50.148 94.658Q48.492 94.658 47.34 96.152Q46.188 97.646 45.63 99.95Q45.072 102.254 45.072 104.666Q45.072 108.086 45.846 109.67Q46.62 111.254 48.276 111.254Q49.896 111.254 51.012 109.742Q52.128 108.23 52.668 105.89Q53.208 103.55 53.208 101.102Q53.208 97.682 52.47 96.17Q51.732 94.658 50.148 94.658ZM116.964 94.658Q118.332 94.658 119.232 95.162L117.288 108.122Q116.64 109.094 115.632 109.796Q114.624 110.498 113.508 110.498Q112.14 110.498 111.402 109.202Q110.664 107.906 110.664 105.53Q110.664 102.974 111.312 100.49Q111.96 98.006 113.364 96.332Q114.768 94.658 116.964 94.658ZM165.564 96.152Q166.716 94.658 168.372 94.658Q169.956 94.658 170.694 96.17Q171.432 97.682 171.432 101.102Q171.432 103.55 170.892 105.89Q170.352 108.23 169.236 109.742Q168.12 111.254 166.5 111.254Q164.844 111.254 164.07 109.67Q163.296 108.086 163.296 104.666Q163.296 102.254 163.854 99.95Q164.412 97.646 165.564 96.152ZM203.31 108.5Q202.392 109.382 202.392 110.75Q202.392 111.83 203.004 112.532Q203.616 113.234 204.48 113.234Q205.704 113.234 206.658 112.388Q207.612 111.542 207.612 110.03Q207.612 108.986 207.036 108.302Q206.46 107.618 205.344 107.618Q204.228 107.618 203.31 108.5ZM214.812 110.75Q214.812 109.382 215.73 108.5Q216.648 107.618 217.764 107.618Q218.88 107.618 219.456 108.302Q220.032 108.986 220.032 110.03Q220.032 111.542 219.078 112.388Q218.124 113.234 216.9 113.234Q216.036 113.234 215.424 112.532Q214.812 111.83 214.812 110.75ZM228.15 108.5Q227.232 109.382 227.232 110.75Q227.232 111.83 227.844 112.532Q228.456 113.234 229.32 113.234Q230.544 113.234 231.498 112.388Q232.452 111.542 232.452 110.03Q232.452 108.986 231.876 108.302Q231.3 107.618 230.184 107.618Q229.068 107.618 228.15 108.5Z" />
    </g>
  </g>
</svg>